# xmcd
#
# Track frame offsets: 
#        150
#        16672
#        30680
#        47614
#        62727
#        78820
#        95657
#        111450
#        125212
#        139287
#        154707
#        171685
#        183067
#        203845
#        223602
#        244487
#        262525
#
# Disc length: 3716 seconds
#
# Revision: 2
# Processed by: cddbd v1.5.2PL0 Copyright (c) Steve Scherf et al.
# Submitted via: ExactAudioCopy v0.99pb4
#
DISCID=ef0e8211
DTITLE=Various Artist - Hott Country 36
DYEAR=1999
DGENRE=
TTITLE0=Shania Twain - That Don't Impress Me Much
TTITLE1=Kenny Chesney - How Forever Feels
TTITLE2=Ty Herndon - Hands Of A Working Man
TTITLE3=Tracy Byrd - When mama Ain't Happy
TTITLE4=Dixie Chicks - You Were Mine
TTITLE5=Travis Tritt - No More Looking Over My Shoulder
TTITLE6=Andy Griggs - You Won't Ever Be Lonely
TTITLE7=Lee Ann Womack - I'll Think Of A Reason Later
TTITLE8=Lisa Brokop - When You Get To Be You
TTITLE9=Trisha Yearwood - Where Your Road Leads (With Garth Brooks)
TTITLE10=Collin Raye - Anyone Else
TTITLE11=Confederate Railroad - The Big One
TTITLE12=Wynonna - Freedom
TTITLE13=Martina McBride - Little Bits Of Lightning
TTITLE14=Joel Feeney - Leslie's Wedding Day
TTITLE15=Bruce Guthro - Ivey's Wall
TTITLE16=Corrs - I Never Loved You Anyway
EXTD=
EXTT0=
EXTT1=
EXTT2=
EXTT3=
EXTT4=
EXTT5=
EXTT6=
EXTT7=
EXTT8=
EXTT9=
EXTT10=
EXTT11=
EXTT12=
EXTT13=
EXTT14=
EXTT15=
EXTT16=
PLAYORDER=
